# 3ds Max Wavefront OBJ Exporter v0.97b - (c)2007 guruware
# File Created: 05.04.2018 18:20:05

#
# object Hopper
#

v  73.3783 99.7524 -26.4505
v  73.3783 99.7524 26.4505
v  13.8163 50.0000 8.2819
v  13.8163 50.0000 -8.2819
v  -0.0131 50.0000 -15.8420
v  -0.5369 99.7524 -26.4505
v  -73.3783 99.7524 26.4505
v  -73.3783 99.7524 -26.4505
v  -13.8163 50.0000 -8.2819
v  -13.8163 50.0000 8.2819
v  13.0944 50.0000 7.5601
v  72.4773 99.7524 25.5495
v  72.4773 99.7524 -25.5495
v  13.0944 50.0000 -7.5601
v  -13.0944 50.0000 -7.5601
v  -0.0000 50.0000 -15.1201
v  -0.5206 99.7524 -25.5495
v  -72.4773 99.7524 -25.5495
v  -72.4773 99.7524 25.5495
v  -13.0944 50.0000 7.5601
# 20 vertices

vn 0.6411 -0.7675 -0.0000
vn 0.2506 -0.2675 -0.9304
vn 0.0030 -0.2085 -0.9780
vn -0.0002 -0.3216 -0.9469
vn 0.0000 -0.3430 -0.9393
vn -0.6411 -0.7675 -0.0000
vn -0.6422 0.7665 -0.0000
vn 0.2681 0.2670 0.9257
vn -0.0035 0.2051 0.9787
vn 0.0002 0.3196 0.9476
vn 0.0000 0.3400 0.9404
vn 0.6422 0.7665 -0.0000
vn 0.0000 -1.0000 -0.0000
vn 0.0000 1.0000 -0.0000
vn -0.2542 -0.2712 -0.9284
vn -0.2648 0.2630 0.9277
# 16 vertex normals

vt 1.0000 1.0000 0.0000
vt 0.0000 1.0000 0.0000
vt 0.0000 0.0000 0.0000
vt 1.0000 0.0000 0.0000
vt 0.5090 0.0000 0.0000
vt 0.5090 1.0000 0.0000
# 6 texture coords

g Hopper
s 16
f 1/1/1 2/2/1 3/3/1 4/4/1 
s 32
f 4/3/2 5/5/3 6/6/4 1/2/5 
s 64
f 7/1/6 8/2/6 9/3/6 10/4/6 
s 16
f 11/3/7 12/2/7 13/1/7 14/4/7 
s 32
f 15/4/8 16/5/9 17/6/10 18/1/11 
s 64
f 15/3/12 18/2/12 19/1/12 20/4/12 
s 1
f 11/3/13 14/4/13 4/4/13 3/3/13 
f 13/1/14 12/2/14 2/2/14 1/1/14 
f 5/5/13 16/5/13 15/4/13 9/4/13 
f 6/6/14 17/6/14 13/2/14 1/2/14 
f 15/3/13 20/4/13 10/4/13 9/3/13 
f 19/1/14 18/2/14 8/2/14 7/1/14 
s 32
f 9/4/15 8/1/5 6/6/4 5/5/3 
f 14/3/16 13/2/11 17/6/10 16/5/9 
s 1
f 5/5/13 4/3/13 14/3/13 16/5/13 
f 6/6/14 8/1/14 18/1/14 17/6/14 
# 16 polygons

#
# object HopperFront
#

v  -13.8163 50.0000 8.2819
v  -0.0091 50.0000 15.8420
v  -0.3731 99.7524 26.4505
v  -73.3783 99.7524 26.4505
v  13.0944 50.0000 7.5601
v  -0.0000 50.0000 15.1201
v  -0.3618 99.7524 25.5495
v  72.4773 99.7524 25.5495
v  13.8163 50.0000 8.2819
v  -72.4773 99.7524 25.5495
v  73.3783 99.7524 26.4505
v  -13.0944 50.0000 7.5601
# 12 vertices

vn -0.2537 -0.2706 0.9287
vn 0.0021 -0.2085 0.9780
vn -0.0002 -0.3216 0.9469
vn 0.0000 -0.3430 0.9393
vn -0.2653 0.2636 -0.9274
vn -0.0025 0.2051 -0.9787
vn 0.0001 0.3196 -0.9476
vn 0.0000 0.3400 -0.9404
vn 0.0000 -1.0000 -0.0000
vn 0.0000 1.0000 -0.0000
vn 0.2512 -0.2680 0.9301
vn 0.2676 0.2663 -0.9260
# 12 vertex normals

vt 0.0000 0.0000 0.0000
vt 0.4937 0.0000 0.0000
vt 0.4937 1.0000 0.0000
vt 0.0000 1.0000 0.0000
vt 1.0000 0.0000 0.0000
vt 1.0000 1.0000 0.0000
# 6 texture coords

g HopperFront
s 8
f 21/7/17 22/8/18 23/9/19 24/10/20 
f 25/11/21 26/8/22 27/9/23 28/12/24 
s 1
f 22/8/25 26/8/25 25/11/25 29/11/25 
f 23/9/26 27/9/26 30/10/26 24/10/26 
s 8
f 29/11/27 31/12/20 23/9/19 22/8/18 
f 32/7/28 30/10/24 27/9/23 26/8/22 
s 1
f 22/8/25 21/7/25 32/7/25 26/8/25 
f 23/9/26 31/12/26 28/12/26 27/9/26 
# 8 polygons

